<?xml version="1.0" encoding="UTF-8" standalone="no"?>
<!-- Created with Inkscape (http://www.inkscape.org/) -->

<svg
   width="77.001213mm"
   height="75.637962mm"
   viewBox="0 0 77.001214 75.637962"
   version="1.1"
   id="svg5"
   inkscape:version="1.1.2 (b8e25be8, 2022-02-05)"
   sodipodi:docname="logo-white-notext.svg"
   xmlns:inkscape="http://www.inkscape.org/namespaces/inkscape"
   xmlns:sodipodi="http://sodipodi.sourceforge.net/DTD/sodipodi-0.dtd"
   xmlns="http://www.w3.org/2000/svg"
   xmlns:svg="http://www.w3.org/2000/svg">
  <sodipodi:namedview
     id="namedview7"
     pagecolor="#ffffff"
     bordercolor="#666666"
     borderopacity="1.0"
     inkscape:pageshadow="2"
     inkscape:pageopacity="0.0"
     inkscape:pagecheckerboard="0"
     inkscape:document-units="mm"
     showgrid="false"
     fit-margin-top="0"
     fit-margin-left="0"
     fit-margin-right="0"
     fit-margin-bottom="0"
     inkscape:zoom="0.69049643"
     inkscape:cx="-25.344085"
     inkscape:cy="224.47618"
     inkscape:window-width="1511"
     inkscape:window-height="916"
     inkscape:window-x="0"
     inkscape:window-y="38"
     inkscape:window-maximized="0"
     inkscape:current-layer="layer1"
     showguides="false" />
  <defs
     id="defs2">
    <style
       id="style1133">
      .d{fill:#fff}
    </style>
  </defs>
  <g
     inkscape:label="Layer 1"
     inkscape:groupmode="layer"
     id="layer1"
     transform="translate(-59.01703,-4.955728)">
    <text
       xml:space="preserve"
       style="font-size:7.05556px;line-height:1.25;font-family:Inter;-inkscape-font-specification:Inter;stroke-width:0.264583"
       x="49.374638"
       y="44.001221"
       id="text4574"><tspan
         sodipodi:role="line"
         id="tspan4572"
         style="stroke-width:0.264583"
         x="49.374638"
         y="44.001221" /><tspan
         sodipodi:role="line"
         style="stroke-width:0.264583"
         id="tspan4576"
         x="49.374638"
         y="52.820671" /></text>
    <g
       id="g1382"
       style="fill:#ffffff">
      <g
         id="g3702-3-7"
         style="fill:#ffffff"
         transform="matrix(1.3092084,0,0,1.3092084,-61.03929,-58.927368)">
        <g
           transform="matrix(0.26458333,0,0,0.26458333,91.831356,27.602819)"
           id="g1720-8-4"
           style="clip-rule:evenodd;fill:#ffffff;fill-rule:evenodd;stroke-linejoin:round;stroke-miterlimit:2">
          <path
             d="m 82.07,191.78 8.18,5.38 c 3.28,-4.33 5.97,-6.55 8.98,-6.41 3.66,0 9.61,6.29 16.52,6.29 6.91,0 11.69,-5.15 16.14,-13.68 l -8.07,-5.38 c -3.51,5.15 -6.2,6.55 -9,6.55 -4.68,0 -11.11,-6.19 -17.54,-6.19 -5.97,0 -10.88,4.09 -15.2,13.45 z"
             style="fill:#ffffff;fill-rule:nonzero"
             id="path1718-0-8" />
        </g>
        <path
           style="color:#000000;fill:#ffffff;-inkscape-stroke:none"
           d="m 120.13672,65.419922 c -6.5066,-10e-7 -11.81055,5.303952 -11.81055,11.810547 0,6.506594 5.30395,11.810547 11.81055,11.810547 6.50659,0 11.81055,-5.303953 11.81055,-11.810547 0,-6.506595 -5.30396,-11.810548 -11.81055,-11.810547 z m 0,2.773437 c 5.00795,0 9.03711,4.029154 9.03711,9.03711 0,5.007955 -4.02916,9.039063 -9.03711,9.039062 -5.00796,10e-7 -9.03906,-4.031107 -9.03906,-9.039062 0,-5.007956 4.0311,-9.03711 9.03906,-9.03711 z"
           id="path3218-2-5" />
      </g>
      <path
         style="color:#000000;fill:#ffffff;stroke-width:3.15207;-inkscape-stroke:none"
         d="m 96.24472,4.955728 c -20.50925,-2.5e-6 -37.22769,16.718434 -37.22769,37.227684 0,20.509245 16.71844,37.227681 37.22769,37.227681 20.50925,0 37.22769,-16.718436 37.22769,-37.227681 0,-20.50925 -16.71844,-37.2276864 -37.22769,-37.227684 z m 0,8.74207 c 15.78541,0 28.48561,12.700181 28.48561,28.485614 0,15.78543 -12.7002,28.491767 -28.48561,28.491765 -15.78544,2e-6 -28.49175,-12.706335 -28.49175,-28.491765 0,-15.785433 12.70631,-28.485614 28.49175,-28.485614 z"
         id="path3218-2-2-8" />
      <path
         style="fill:#ffffff;fill-opacity:1;stroke:none;stroke-width:0.265;stroke-linecap:butt;stroke-linejoin:miter;stroke-miterlimit:4;stroke-dasharray:none;stroke-opacity:1"
         d="m 110.55508,36.522177 c 7.64677,-3.485072 15.29355,-6.031485 22.94032,-8.272594 l 2.52284,11.382151 c -8.19436,-0.401068 -16.38873,0.294586 -24.58309,1.290759 z"
         id="path1211-3"
         sodipodi:nodetypes="ccccc" />
      <path
         style="fill:#ffffff;fill-opacity:1;stroke:none;stroke-width:0.265;stroke-linecap:butt;stroke-linejoin:miter;stroke-miterlimit:4;stroke-dasharray:none;stroke-opacity:1"
         d="M 84.52554,32.381549 C 77.68399,27.501788 71.65534,22.152689 65.8911,16.650946 l 8.59581,-7.875919 c 3.74985,7.297058 8.44949,14.045764 13.40938,20.644201 z"
         id="path1211-7-0"
         sodipodi:nodetypes="ccccc" />
      <path
         style="fill:#ffffff;fill-opacity:1;stroke:none;stroke-width:0.265;stroke-linecap:butt;stroke-linejoin:miter;stroke-miterlimit:4;stroke-dasharray:none;stroke-opacity:1"
         d="m 93.36454,56.590487 c -0.80523,8.364837 -2.42336,16.26035 -4.30589,24.0032 L 77.94,77.087457 C 82.38452,70.191462 85.87925,62.74711 89.11372,55.152492 Z"
         id="path1211-9-6"
         sodipodi:nodetypes="ccccc" />
    </g>
  </g>
</svg>
