<?xml version="1.0" standalone="no"?>
<!DOCTYPE svg PUBLIC "-//W3C//DTD SVG 20010904//EN"
 "http://www.w3.org/TR/2001/REC-SVG-20010904/DTD/svg10.dtd">
<svg version="1.0" xmlns="http://www.w3.org/2000/svg"
 width="582.000000pt" height="582.000000pt" viewBox="0 0 582.000000 582.000000"
 preserveAspectRatio="xMidYMid meet">
<metadata>
Created by potrace 1.14, written by Peter Selinger 2001-2017
</metadata>
<g transform="translate(0.000000,582.000000) scale(0.100000,-0.100000)"
fill="#000000" stroke="none">
<path d="M2599 5765 c-2 -2 -33 -6 -69 -9 -36 -4 -76 -8 -90 -11 -14 -2 -54
-9 -90 -15 -84 -13 -123 -21 -180 -35 -11 -3 -28 -7 -38 -9 -73 -16 -275 -81
-304 -97 -10 -5 -22 -9 -27 -9 -5 0 -34 -11 -65 -25 -31 -14 -58 -25 -61 -25
-11 0 -253 -129 -326 -173 -42 -26 -80 -47 -85 -47 -5 0 -28 39 -51 85 l-42
85 -38 -32 c-21 -18 -52 -46 -69 -63 -17 -16 -68 -64 -114 -105 -45 -41 -97
-88 -114 -105 -40 -37 -192 -176 -264 -240 l-53 -48 66 -63 c43 -41 64 -68 59
-76 -9 -16 -67 -91 -75 -98 -3 -3 -30 -41 -60 -85 -30 -44 -56 -82 -60 -85
-14 -13 -131 -225 -171 -310 -60 -126 -70 -149 -108 -255 -18 -49 -35 -97 -38
-105 -3 -8 -6 -19 -7 -25 -2 -5 -8 -30 -15 -55 -7 -25 -11 -45 -10 -45 1 0 -4
-13 -10 -30 -6 -16 -22 -86 -35 -155 -24 -122 -28 -150 -42 -275 -9 -75 -8
-493 1 -560 4 -27 9 -65 11 -82 3 -18 7 -50 10 -70 25 -173 121 -515 171 -611
7 -15 14 -31 14 -36 0 -15 132 -281 142 -284 4 -2 8 -9 8 -14 0 -19 201 -323
230 -348 3 -3 16 -18 28 -34 141 -184 398 -418 627 -573 70 -47 214 -133 223
-133 4 0 15 -7 24 -14 17 -12 16 -16 -10 -52 -15 -22 -35 -53 -44 -70 l-17
-30 47 -14 c26 -8 49 -15 52 -16 3 0 12 -3 20 -7 28 -10 117 -37 138 -42 11
-2 31 -9 44 -16 13 -7 24 -11 26 -10 2 2 137 -39 337 -103 164 -53 175 -56
175 -44 1 4 7 26 15 48 15 43 15 42 15 64 0 10 9 12 43 6 23 -5 65 -11 92 -14
28 -4 68 -9 90 -12 172 -24 513 -15 725 20 101 17 108 18 185 36 28 6 57 13
65 15 8 1 33 8 55 14 22 6 43 11 47 11 10 2 216 75 253 91 17 6 35 13 40 14
41 10 353 173 388 203 9 8 17 11 17 6 0 -5 4 -4 8 1 4 6 49 39 101 74 87 59
114 79 145 106 6 6 31 26 56 45 56 43 314 300 360 359 19 25 43 54 53 65 36
43 137 186 137 194 0 5 6 15 14 21 33 27 175 296 241 456 33 79 107 295 120
350 19 77 54 250 59 286 3 24 8 54 11 67 11 59 20 233 19 392 l0 175 99 -3
c92 -3 98 -2 93 15 -3 10 -7 29 -10 43 -3 14 -15 68 -26 120 -12 52 -23 106
-26 120 -3 14 -10 43 -16 65 -5 22 -12 49 -13 60 -2 11 -11 52 -20 90 -9 39
-18 79 -19 90 -3 17 -30 140 -51 233 -3 13 -10 20 -15 17 -6 -4 -21 -8 -33
-11 -13 -2 -48 -12 -80 -22 -63 -21 -65 -20 -86 38 -84 226 -267 529 -466 769
-102 124 -393 391 -507 466 -8 6 -53 35 -100 67 -197 130 -413 235 -643 312
-116 40 -320 92 -395 102 -25 3 -54 8 -65 11 -11 2 -40 6 -65 9 -25 3 -58 7
-75 10 -34 7 -501 15 -506 9z m461 -669 c14 -2 43 -7 65 -10 22 -3 51 -8 65
-10 14 -3 36 -7 50 -10 188 -33 457 -132 623 -228 26 -16 52 -28 57 -28 6 0
10 -4 10 -10 0 -5 5 -10 10 -10 13 0 126 -78 215 -149 123 -97 233 -207 330
-326 31 -38 63 -78 71 -88 8 -9 14 -21 14 -26 0 -5 7 -14 16 -22 8 -7 24 -29
35 -48 11 -20 28 -49 39 -66 27 -42 86 -156 125 -242 l33 -71 -47 -17 c-25 -9
-55 -21 -66 -26 -11 -5 -51 -20 -90 -33 -141 -48 -200 -71 -203 -78 -2 -5 -10
-8 -17 -8 -14 0 -283 -110 -390 -159 -33 -16 -70 -31 -82 -35 -23 -7 -20 -11
-107 161 -6 13 -14 23 -18 23 -5 0 -8 6 -8 13 0 7 -8 22 -17 33 -10 10 -31 36
-46 57 -48 64 -168 175 -242 225 -38 26 -72 49 -75 52 -6 8 -124 64 -174 84
-154 63 -413 97 -551 73 -16 -3 -50 -9 -75 -12 -73 -12 -76 -13 -173 -45 -83
-29 -220 -94 -251 -120 -9 -7 -25 7 -58 53 -241 330 -315 434 -409 574 -60 89
-109 166 -109 171 0 4 18 19 41 33 22 13 57 34 77 46 82 49 253 128 354 164
114 41 288 88 335 91 15 1 32 4 38 7 11 6 9 5 120 16 44 4 82 8 83 10 6 5 373
-3 402 -9z m-1864 -824 c23 -20 59 -51 80 -69 22 -18 53 -43 69 -57 17 -14 35
-29 40 -33 6 -5 26 -21 46 -38 55 -46 66 -54 184 -145 61 -47 115 -89 121 -95
6 -5 21 -17 34 -25 86 -59 149 -109 142 -114 -33 -20 -183 -280 -197 -342 -2
-10 -11 -38 -19 -61 -9 -24 -18 -60 -21 -80 -4 -21 -8 -49 -11 -63 -27 -138
-23 -316 11 -456 70 -292 248 -547 495 -712 83 -55 85 -58 73 -82 -7 -14 -31
-68 -54 -120 -107 -247 -148 -337 -250 -548 l-98 -202 -58 32 c-306 166 -577
415 -769 709 -61 93 -158 271 -184 340 -7 19 -19 50 -27 69 -59 151 -106 346
-131 545 -14 113 -7 456 12 550 2 11 7 42 10 69 4 27 9 53 11 56 2 4 7 20 10
36 3 16 12 54 20 84 9 30 18 63 20 72 4 20 47 138 70 193 32 77 90 191 140
274 27 45 55 91 60 101 25 42 111 150 120 149 6 0 29 -16 51 -37z m1799 -440
c210 -43 404 -167 530 -337 133 -180 186 -349 180 -570 -1 -55 -6 -113 -10
-130 -34 -144 -82 -259 -147 -353 -54 -78 -226 -242 -255 -242 -6 0 -13 -3
-15 -7 -7 -18 -188 -96 -244 -107 -16 -2 -40 -8 -54 -11 -14 -4 -80 -8 -148
-10 -262 -6 -483 84 -665 272 -102 105 -189 264 -221 404 -12 52 -27 170 -28
224 -1 16 12 141 17 166 16 84 95 279 116 287 5 2 9 8 9 14 0 13 52 81 109
141 126 133 292 224 481 261 73 15 268 14 345 -2z m1967 -716 c10 -57 -3 -423
-17 -476 -2 -8 -7 -35 -10 -60 -21 -151 -108 -421 -182 -563 -15 -29 -27 -54
-28 -57 -5 -30 -151 -254 -223 -345 -123 -153 -277 -301 -417 -401 -121 -86
-134 -94 -145 -94 -5 0 -10 -4 -10 -8 0 -8 -182 -102 -270 -140 -161 -68 -338
-119 -520 -148 -190 -30 -636 -22 -691 12 -4 2 -3 19 1 37 8 31 15 67 25 132
3 16 11 65 20 110 8 44 17 96 19 115 3 19 8 51 11 70 10 63 25 164 30 208 3
23 7 59 10 80 3 20 8 62 11 92 3 30 7 66 9 80 2 14 3 30 4 36 1 8 15 9 49 2
65 -13 367 -11 367 2 0 2 21 6 60 13 80 13 335 116 343 138 2 5 8 9 13 9 12 0
123 80 127 92 2 4 8 8 13 8 15 0 131 120 179 185 25 33 47 62 50 65 8 8 36 60
74 137 79 160 116 323 118 514 1 90 2 95 22 95 19 1 49 4 176 19 56 6 152 17
185 20 17 1 59 6 95 9 121 12 155 15 250 22 52 3 96 7 97 8 1 1 36 2 77 3 68
1 74 -1 78 -21z"/>
<path d="M2495 3188 c-87 -18 -159 -71 -236 -173 -21 -28 -39 -55 -39 -58 0
-3 -13 -28 -29 -55 -16 -27 -26 -53 -22 -58 10 -15 196 -134 209 -134 7 0 12
4 12 9 0 16 109 118 144 135 19 9 50 16 70 16 39 0 51 -5 207 -88 106 -56 163
-75 226 -75 108 1 175 32 263 123 80 82 83 87 116 147 15 26 30 52 35 57 5 6
9 16 9 23 0 13 -186 143 -205 143 -6 0 -18 -12 -27 -27 -24 -41 -85 -99 -122
-117 -74 -35 -124 -27 -266 43 -184 91 -254 109 -345 89z"/>
</g>
</svg>
